<?xml version="1.0" standalone="no"?><!DOCTYPE svg PUBLIC "-//W3C//DTD SVG 1.1//EN" "http://www.w3.org/Graphics/SVG/1.1/DTD/svg11.dtd"><svg t="1668999268997" class="icon" viewBox="0 0 1024 1024" version="1.1" xmlns="http://www.w3.org/2000/svg" p-id="1109" xmlns:xlink="http://www.w3.org/1999/xlink" width="200" height="200"><path d="M512 69.818182c243.898182 0 442.181818 198.283636 442.181818 442.181818s-198.283636 442.181818-442.181818 442.181818S69.818182 755.898182 69.818182 512 268.101818 69.818182 512 69.818182m0-69.818182C229.236364 0 0 229.236364 0 512s229.236364 512 512 512 512-229.236364 512-512S794.763636 0 512 0z" p-id="1110" fill="#2c2c2c"></path><path d="M512 662.574545c-8.378182 0-16.756364-3.025455-23.505455-9.076363l-217.832727-196.887273c-14.196364-13.032727-15.36-34.909091-2.56-49.338182 13.032727-14.429091 34.909091-15.36 49.338182-2.56L512 580.654545l194.327273-175.70909c14.196364-12.8 36.305455-11.869091 49.338182 2.56 13.032727 14.196364 11.869091 36.305455-2.56 49.338181L535.272727 653.730909c-6.516364 5.818182-14.894545 8.843636-23.272727 8.843636z" p-id="1111" fill="#2c2c2c"></path></svg>