<?xml version="1.0" standalone="no"?><!DOCTYPE svg PUBLIC "-//W3C//DTD SVG 1.1//EN" "http://www.w3.org/Graphics/SVG/1.1/DTD/svg11.dtd"><svg t="1668999350125" class="icon" viewBox="0 0 1024 1024" version="1.1" xmlns="http://www.w3.org/2000/svg" p-id="1804" xmlns:xlink="http://www.w3.org/1999/xlink" width="200" height="200"><path d="M511.651147 70.468317c243.732001 0 441.880536 198.148535 441.880536 441.880536s-198.148535 441.880536-441.880536 441.880536-441.880536-198.148535-441.880536-441.880536 198.148535-441.880536 441.880536-441.880536m0-69.770611c-282.570974 0-511.651147 229.080173-511.651147 511.651147s229.080173 511.651147 511.651147 511.651147 511.651147-229.080173 511.651147-511.651147-229.080173-511.651147-511.651147-511.651147z" p-id="1805"></path><path d="M729.335453 628.400636c-8.372473 0-16.744947-3.023393-23.489439-9.070179L511.651147 443.741086l-194.194867 175.589371c-14.41926 13.023847-36.280718 11.861004-49.304565-2.558256s-11.861004-36.280718 2.558255-49.304565L488.394277 370.714513a34.652737 34.652737 0 0 1 46.746309 0l217.684306 196.753123c14.186691 12.791279 15.349534 34.885305 2.558256 49.304565-7.20963 7.674767-16.744947 11.628435-26.047695 11.628435z" p-id="1806"></path></svg>